<?xml version="1.0"?>
<svg xmlns="http://www.w3.org/2000/svg" id="Icons" viewBox="0 0 74 74" width="512" height="512"><path d="M36.994,72a35,35,0,0,1-.213-70h.226a35,35,0,0,1,.212,70Zm-.2-68a33.06,33.06,0,1,0,.213,0Z"/><path d="M36.994,72a35,35,0,0,1-.213-70h.226a35,35,0,0,1,.212,70Zm-.2-68a33.06,33.06,0,1,0,.213,0Z"/><path d="M37.164,72C27.657,72,20.123,56.7,20,37.107,19.878,17.481,27.248,2.061,36.781,2h.055C46.343,2,53.877,17.3,54,36.893,54.122,56.519,46.752,71.939,37.219,72ZM36.793,4c-8.13.051-14.9,15.207-14.793,33.094C22.112,54.951,29.054,70,37.166,70h.041c8.13-.051,14.9-15.207,14.793-33.094C51.888,19.049,44.946,4,36.834,4Z"/><path d="M37.213,72a1,1,0,0,1-1-.994l-.426-68A1,1,0,0,1,36.781,2h.006a1,1,0,0,1,1,.994l.426,68A1,1,0,0,1,37.219,72Z"/><path d="M3,38.213a1,1,0,0,1-.006-2l68-.427H71a1,1,0,0,1,.006,2l-68,.427Z"/><path d="M8.038,20.181a1,1,0,0,1-.006-2l57.7-.362h.006a1,1,0,0,1,.006,2l-57.7.362Z"/><path d="M8.264,56.181a1,1,0,0,1-.006-2l57.7-.362h.006a1,1,0,0,1,.006,2l-57.7.362Z"/></svg>
